<?xml version="1.0" encoding="iso-8859-1"?>
<!-- Uploaded to: SVG Repo, www.svgrepo.com, Transformed by: SVG Repo Mixer Tools -->
<svg fill="#000000" height="800px" width="800px" version="1.1" id="Layer_1" xmlns="http://www.w3.org/2000/svg" xmlns:xlink="http://www.w3.org/1999/xlink" 
	 viewBox="0 0 512 512" xml:space="preserve">
<g>
	<g>
		<path d="M323.961,99.53c-86.276,0-156.469,70.192-156.469,156.469c0,38.512,14.117,75.522,39.753,104.214
			c3.233,3.618,8.788,3.932,12.409,0.698c3.62-3.234,3.931-8.789,0.698-12.409C197.6,323.037,185.07,290.185,185.07,256
			c0-76.586,62.307-138.893,138.893-138.893c76.586,0,138.893,62.307,138.893,138.893s-62.309,138.893-138.894,138.893
			c-29.154,0-57.054-8.93-80.686-25.826c-3.948-2.823-9.436-1.91-12.26,2.038c-2.823,3.948-1.911,9.436,2.038,12.26
			c26.63,19.04,58.066,29.104,90.908,29.104c86.278,0,156.469-70.192,156.469-156.469S410.238,99.53,323.961,99.53z"/>
	</g>
</g>
<g>
	<g>
		<path d="M417.463,58.276H35.609C15.973,58.276,0,74.249,0,93.884v245c0,4.853,3.935,8.788,8.788,8.788
			c4.853,0,8.788-3.935,8.788-8.788v-245c0-9.944,8.089-18.032,18.032-18.032h381.854c4.853,0,8.788-3.935,8.788-8.788
			C426.251,62.21,422.316,58.276,417.463,58.276z"/>
	</g>
</g>
<g>
	<g>
		<path d="M476.392,58.276H447.93c-4.853,0-8.788,3.935-8.788,8.788c0,4.853,3.935,8.788,8.788,8.788h28.462
			c9.943,0,18.032,8.089,18.032,18.032v324.232c0,9.943-8.089,18.032-18.032,18.032H35.609c-9.944,0-18.032-8.089-18.032-18.032
			v-49.938c0-4.853-3.935-8.788-8.788-8.788c-4.853,0-8.788,3.935-8.788,8.788v49.938c0,19.635,15.973,35.608,35.609,35.608h440.783
			c19.635,0,35.609-15.973,35.609-35.608V93.884C512,74.249,496.027,58.276,476.392,58.276z"/>
	</g>
</g>
<g>
	<g>
		<path d="M425.466,210.207c-16.11-10.482-36.217-12.092-53.782-4.309l-26.906,11.913c-3.277-1.794-6.762-3.15-10.384-4.04v-76.224
			c0-4.853-3.935-8.788-8.788-8.788c-19.212,0-36.94,9.617-47.421,25.725c-10.483,16.11-12.093,36.219-4.309,53.787l11.905,26.888
			c-1.796,3.282-3.154,6.773-4.046,10.401h-76.21v0.001c-4.853,0-8.788,3.935-8.788,8.788c0,19.221,9.619,36.955,25.732,47.435
			c9.353,6.084,20.052,9.177,30.82,9.176c7.779,0,15.594-1.614,22.961-4.881l26.884-11.909c3.287,1.802,6.777,3.166,10.404,4.058
			v76.213c0,4.853,3.935,8.788,8.788,8.788c19.211,0,36.937-9.618,47.419-25.727c10.485-16.114,12.097-36.226,4.312-53.795
			l-11.907-26.894c1.792-3.279,3.145-6.763,4.036-10.384h76.223c4.853,0,8.788-3.935,8.788-8.788
			C451.194,238.421,441.576,220.689,425.466,210.207z M269.128,290.01c-12.109,5.37-25.97,4.264-37.074-2.96
			c-8.595-5.592-14.511-14.176-16.747-23.913h65.75c1.104,6.597,3.72,12.831,7.593,18.227L269.128,290.01z M292.918,164.071
			c5.59-8.593,14.17-14.504,23.9-16.741v65.759c-6.6,1.104-12.834,3.718-18.227,7.587l-8.644-19.523
			C284.581,189.04,285.691,175.178,292.918,164.071z M322.895,281.904c-0.06-0.004-0.12-0.007-0.179-0.009
			c-4.969-0.22-9.735-1.87-13.78-4.771c-0.089-0.063-0.178-0.125-0.268-0.185c-6.67-4.879-10.642-12.682-10.642-20.936
			c0-0.366,0.006-0.731,0.028-1.097c0.004-0.05,0.006-0.101,0.008-0.152c0.23-4.993,1.879-9.763,4.785-13.815
			c4.858-6.811,12.749-10.88,21.108-10.88c0.362,0,0.724,0.005,1.086,0.028c0.054,0.004,0.108,0.006,0.162,0.009
			c4.985,0.229,9.751,1.88,13.809,4.789c6.816,4.852,10.886,12.746,10.886,21.116c0,0.36-0.006,0.721-0.028,1.072
			c-0.004,0.055-0.006,0.11-0.009,0.164c-0.229,4.982-1.878,9.753-4.774,13.803c-4.864,6.82-12.764,10.891-21.131,10.891
			C323.597,281.932,323.245,281.926,322.895,281.904z M355.013,347.917c-5.59,8.593-14.169,14.505-23.899,16.742v-65.761
			c6.599-1.106,12.834-3.724,18.228-7.595l8.644,19.523C363.355,322.94,362.243,336.806,355.013,347.917z M366.867,248.852
			c-1.105-6.606-3.723-12.844-7.594-18.236l19.53-8.648c12.111-5.367,25.973-4.256,37.079,2.97
			c8.595,5.592,14.509,14.177,16.746,23.913H366.867z"/>
	</g>
</g>
<g>
	<g>
		<path d="M139.563,116.275H48.171c-4.853,0-8.788,3.935-8.788,8.788c0,4.853,3.935,8.788,8.788,8.788h91.392
			c4.853,0,8.788-3.935,8.788-8.788C148.351,120.21,144.418,116.275,139.563,116.275z"/>
	</g>
</g>
<g>
	<g>
		<path d="M139.563,247.213H48.171c-4.853,0-8.788,3.935-8.788,8.788s3.935,8.788,8.788,8.788h91.392
			c4.853,0,8.788-3.935,8.788-8.788S144.418,247.213,139.563,247.213z"/>
	</g>
</g>
<g>
	<g>
		<path d="M139.563,334.504H48.171c-4.853,0-8.788,3.935-8.788,8.788s3.935,8.788,8.788,8.788h91.392
			c4.853,0,8.788-3.935,8.788-8.788S144.418,334.504,139.563,334.504z"/>
	</g>
</g>
<g>
	<g>
		<path d="M139.563,290.859H48.171c-4.853,0-8.788,3.935-8.788,8.788s3.935,8.788,8.788,8.788h91.392
			c4.853,0,8.788-3.935,8.788-8.788S144.418,290.859,139.563,290.859z"/>
	</g>
</g>
<g>
	<g>
		<path d="M139.563,378.15H48.171c-4.853,0-8.788,3.935-8.788,8.788c0,4.853,3.935,8.788,8.788,8.788h91.392
			c4.853,0,8.788-3.935,8.788-8.788C148.351,382.085,144.418,378.15,139.563,378.15z"/>
	</g>
</g>
<g>
	<g>
		<path d="M139.563,203.568h-9.959c-4.853,0-8.788,3.935-8.788,8.788s3.935,8.788,8.788,8.788h9.959
			c4.853,0,8.788-3.935,8.788-8.788S144.418,203.568,139.563,203.568z"/>
	</g>
</g>
<g>
	<g>
		<path d="M100.311,203.568h-52.14c-4.853,0-8.788,3.935-8.788,8.788s3.935,8.788,8.788,8.788h52.14
			c4.853,0,8.788-3.935,8.788-8.788S105.164,203.568,100.311,203.568z"/>
	</g>
</g>
<g>
	<g>
		<path d="M139.563,159.921H48.171c-4.853,0-8.788,3.935-8.788,8.788c0,4.853,3.935,8.788,8.788,8.788h91.392
			c4.853,0,8.788-3.935,8.788-8.788C148.351,163.855,144.418,159.921,139.563,159.921z"/>
	</g>
</g>
</svg>