<?xml version="1.0" encoding="UTF-8"?>
<svg width="64px" height="64px" viewBox="0 0 64 64" version="1.1" xmlns="http://www.w3.org/2000/svg" xmlns:xlink="http://www.w3.org/1999/xlink">
    <title>measure_temperature</title>
    <g id="measure_temperature" stroke="none" stroke-width="1" fill="none" fill-rule="evenodd">
        <path d="M31.999,6 L32.2653623,6.0038371 C37.1131863,6.14420851 41,10.1181935 41,14.9997851 L41.001,35.62 L41.1032168,35.718377 C43.4744626,38.0430383 44.9026273,41.2209602 44.9952035,44.6449421 L45,45 C45,52.1797017 39.1797017,58 32,58 C24.8202983,58 19,52.1797017 19,45 C19,41.4406447 20.4441745,38.1222884 22.8977776,35.7174013 L23,35.619 L23,15 C23,10.1181973 26.8868137,6.14420858 31.7346377,6.00383711 L31.999,6 Z M32,10 C29.2385763,10 27,12.2385763 27,15 L26.9997843,37.5156934 C24.5879338,39.1302357 23,41.8796769 23,45 C23,49.9705627 27.0294373,54 32,54 C36.9705627,54 41,49.9705627 41,45 C41,41.8801057 39.4125026,39.1309913 37.00121,37.5163591 L37,15 C37,12.2385763 34.7614237,10 32,10 Z M32,23 C33.1045695,23 34,23.8954305 34,25 L34.0006859,39.3416539 C36.3307123,40.1655203 38,42.3878187 38,45 C38,48.3137085 35.3137085,51 32,51 C28.6862915,51 26,48.3137085 26,45 C26,42.3874421 27.669769,40.1648796 30.0003218,39.3412977 L30,25 C30,23.8954305 30.8954305,23 32,23 Z" id="Shape" fill="#000000" fill-rule="nonzero"></path>
    </g>
</svg>